<?xml version="1.0" encoding="UTF-8" standalone="no"?>
<!DOCTYPE svg PUBLIC "-//W3C//DTD SVG 1.1//EN"
 "http://www.w3.org/Graphics/SVG/1.1/DTD/svg11.dtd">
<!-- Generated by graphviz version 2.38.0 (20140413.2041)
 -->
<!-- Title: G Pages: 1 -->
<svg width="547pt" height="546pt"
 viewBox="0.00 0.00 547.09 546.00" xmlns="http://www.w3.org/2000/svg" xmlns:xlink="http://www.w3.org/1999/xlink">
<g id="graph0" class="graph" transform="scale(1 1) rotate(0) translate(4 542)">
<title>G</title>
<polygon fill="white" stroke="none" points="-4,4 -4,-542 543.091,-542 543.091,4 -4,4"/>
<g id="clust1" class="cluster"><title>cluster_Global</title>
<path fill="none" stroke="gray" d="M160.091,-8C160.091,-8 519.091,-8 519.091,-8 525.091,-8 531.091,-14 531.091,-20 531.091,-20 531.091,-518 531.091,-518 531.091,-524 525.091,-530 519.091,-530 519.091,-530 160.091,-530 160.091,-530 154.091,-530 148.091,-524 148.091,-518 148.091,-518 148.091,-20 148.091,-20 148.091,-14 154.091,-8 160.091,-8"/>
<text text-anchor="middle" x="339.591" y="-517.2" font-family="Times New Roman,serif" font-size="11.00" fill="gray">Global</text>
</g>
<g id="clust2" class="cluster"><title>cluster_\Gunsobal</title>
<path fill="none" stroke="gray" d="M168.091,-16C168.091,-16 511.091,-16 511.091,-16 517.091,-16 523.091,-22 523.091,-28 523.091,-28 523.091,-490 523.091,-490 523.091,-496 517.091,-502 511.091,-502 511.091,-502 168.091,-502 168.091,-502 162.091,-502 156.091,-496 156.091,-490 156.091,-490 156.091,-28 156.091,-28 156.091,-22 162.091,-16 168.091,-16"/>
<text text-anchor="middle" x="339.591" y="-489.2" font-family="Times New Roman,serif" font-size="11.00" fill="gray">Gunsobal</text>
</g>
<g id="clust3" class="cluster"><title>cluster_\Gunsobal\Xmlary</title>
<path fill="none" stroke="gray" d="M176.091,-24C176.091,-24 503.091,-24 503.091,-24 509.091,-24 515.091,-30 515.091,-36 515.091,-36 515.091,-462 515.091,-462 515.091,-468 509.091,-474 503.091,-474 503.091,-474 176.091,-474 176.091,-474 170.091,-474 164.091,-468 164.091,-462 164.091,-462 164.091,-36 164.091,-36 164.091,-30 170.091,-24 176.091,-24"/>
<text text-anchor="middle" x="339.591" y="-461.2" font-family="Times New Roman,serif" font-size="11.00" fill="gray">Xmlary</text>
</g>
<!-- \\Gunsobal\\Xmlary\\Xmlify -->
<g id="node1" class="node"><title>\\Gunsobal\\Xmlary\\Xmlify</title>
<polygon fill="none" stroke="black" points="463.091,-446 406.091,-446 406.091,-410 463.091,-410 463.091,-446"/>
<text text-anchor="middle" x="434.591" y="-425.2" font-family="Courier,monospace" font-size="11.00">Xmlify</text>
</g>
<!-- \\Gunsobal\\Xmlary\\XmlaryException -->
<g id="node2" class="node"><title>\\Gunsobal\\Xmlary\\XmlaryException</title>
<polygon fill="none" stroke="black" points="290.091,-338 172.091,-338 172.091,-302 290.091,-302 290.091,-338"/>
<text text-anchor="middle" x="231.091" y="-317.2" font-family="Courier,monospace" font-size="11.00">XmlaryException</text>
</g>
<!-- \\Exception -->
<g id="node10" class="node"><title>\\Exception</title>
<ellipse fill="none" stroke="black" cx="50.0456" cy="-320" rx="50.0912" ry="18"/>
<text text-anchor="middle" x="50.0456" y="-316.3" font-family="Times New Roman,serif" font-size="14.00" fill="gray">\Exception</text>
</g>
<!-- \\Gunsobal\\Xmlary\\XmlaryException&#45;&gt;\\Exception -->
<g id="edge1" class="edge"><title>\\Gunsobal\\Xmlary\\XmlaryException&#45;&gt;\\Exception</title>
<path fill="none" stroke="black" d="M171.96,-320C152.222,-320 130.152,-320 110.326,-320"/>
<polygon fill="none" stroke="black" points="110.186,-316.5 100.186,-320 110.186,-323.5 110.186,-316.5"/>
</g>
<!-- \\Gunsobal\\Xmlary\\XmlifyException -->
<g id="node3" class="node"><title>\\Gunsobal\\Xmlary\\XmlifyException</title>
<polygon fill="none" stroke="black" points="493.591,-392 375.591,-392 375.591,-356 493.591,-356 493.591,-392"/>
<text text-anchor="middle" x="434.591" y="-371.2" font-family="Courier,monospace" font-size="11.00">XmlifyException</text>
</g>
<!-- \\Gunsobal\\Xmlary\\XmlifyException&#45;&gt;\\Gunsobal\\Xmlary\\XmlaryException -->
<g id="edge2" class="edge"><title>\\Gunsobal\\Xmlary\\XmlifyException&#45;&gt;\\Gunsobal\\Xmlary\\XmlaryException</title>
<path fill="none" stroke="black" d="M375.579,-358.453C352.077,-352.155 324.765,-344.836 300.316,-338.284"/>
<polygon fill="none" stroke="black" points="300.956,-334.832 290.391,-335.624 299.144,-341.593 300.956,-334.832"/>
</g>
<!-- \\Gunsobal\\Xmlary\\XmlMessageException -->
<g id="node4" class="node"><title>\\Gunsobal\\Xmlary\\XmlMessageException</title>
<polygon fill="none" stroke="black" points="507.091,-338 362.091,-338 362.091,-302 507.091,-302 507.091,-338"/>
<text text-anchor="middle" x="434.591" y="-317.2" font-family="Courier,monospace" font-size="11.00">XmlMessageException</text>
</g>
<!-- \\Gunsobal\\Xmlary\\XmlMessageException&#45;&gt;\\Gunsobal\\Xmlary\\XmlaryException -->
<g id="edge3" class="edge"><title>\\Gunsobal\\Xmlary\\XmlMessageException&#45;&gt;\\Gunsobal\\Xmlary\\XmlaryException</title>
<path fill="none" stroke="black" d="M361.982,-320C341.946,-320 320.228,-320 300.389,-320"/>
<polygon fill="none" stroke="black" points="300.204,-316.5 290.204,-320 300.204,-323.5 300.204,-316.5"/>
</g>
<!-- \\Gunsobal\\Xmlary\\XmlParserException -->
<g id="node5" class="node"><title>\\Gunsobal\\Xmlary\\XmlParserException</title>
<polygon fill="none" stroke="black" points="503.591,-284 365.591,-284 365.591,-248 503.591,-248 503.591,-284"/>
<text text-anchor="middle" x="434.591" y="-263.2" font-family="Courier,monospace" font-size="11.00">XmlParserException</text>
</g>
<!-- \\Gunsobal\\Xmlary\\XmlParserException&#45;&gt;\\Gunsobal\\Xmlary\\XmlaryException -->
<g id="edge4" class="edge"><title>\\Gunsobal\\Xmlary\\XmlParserException&#45;&gt;\\Gunsobal\\Xmlary\\XmlaryException</title>
<path fill="none" stroke="black" d="M366.214,-284.056C344.979,-289.747 321.515,-296.035 300.227,-301.74"/>
<polygon fill="none" stroke="black" points="299.048,-298.433 290.295,-304.402 300.86,-305.194 299.048,-298.433"/>
</g>
<!-- \\Gunsobal\\Xmlary\\XmlParser -->
<g id="node6" class="node"><title>\\Gunsobal\\Xmlary\\XmlParser</title>
<polygon fill="none" stroke="black" points="473.091,-230 396.091,-230 396.091,-194 473.091,-194 473.091,-230"/>
<text text-anchor="middle" x="434.591" y="-209.2" font-family="Courier,monospace" font-size="11.00">XmlParser</text>
</g>
<!-- \\Gunsobal\\Xmlary\\Utils -->
<g id="node7" class="node"><title>\\Gunsobal\\Xmlary\\Utils</title>
<polygon fill="none" stroke="black" points="461.591,-176 407.591,-176 407.591,-140 461.591,-140 461.591,-176"/>
<text text-anchor="middle" x="434.591" y="-155.2" font-family="Courier,monospace" font-size="11.00">Utils</text>
</g>
<!-- \\Gunsobal\\Xmlary\\XmlMessage -->
<g id="node8" class="node"><title>\\Gunsobal\\Xmlary\\XmlMessage</title>
<polygon fill="none" stroke="black" points="476.591,-122 392.591,-122 392.591,-86 476.591,-86 476.591,-122"/>
<text text-anchor="middle" x="434.591" y="-101.2" font-family="Courier,monospace" font-size="11.00">XmlMessage</text>
</g>
<!-- \\Gunsobal\\Xmlary\\XsdValidator -->
<g id="node9" class="node"><title>\\Gunsobal\\Xmlary\\XsdValidator</title>
<polygon fill="none" stroke="black" points="483.591,-68 385.591,-68 385.591,-32 483.591,-32 483.591,-68"/>
<text text-anchor="middle" x="434.591" y="-47.2" font-family="Courier,monospace" font-size="11.00">XsdValidator</text>
</g>
</g>
</svg>
